HIERARCHY
ROOT Root
{
  OFFSET 13.0112 11.8871 0.544473
  CHANNELS 6 Xposition Yposition Zposition Zrotation Xrotation Yrotation
  JOINT Spine
  {
    OFFSET 5.3114 0 0
    CHANNELS 3 Zrotation Xrotation Yrotation
    JOINT Spine1
    {
      OFFSET 2.79004 0 0
      CHANNELS 3 Zrotation Xrotation Yrotation
      JOINT Neck
      {
        OFFSET 1.43377 0 0
        CHANNELS 3 Zrotation Xrotation Yrotation
        JOINT Head
        {
          OFFSET 1.86043 0 0
          CHANNELS 3 Zrotation Xrotation Yrotation
          End Site
          {
            OFFSET 0 0 0
          }
        }
      }
      JOINT LeftArm
      {
        OFFSET 0.0387506 0 2.55754
        CHANNELS 3 Zrotation Xrotation Yrotation
        JOINT LeftForeArm
        {
          OFFSET 4.24845 0 0
          CHANNELS 3 Zrotation Xrotation Yrotation
          JOINT LeftHand
          {
            OFFSET 4.01008 0 0
            CHANNELS 3 Zrotation Xrotation Yrotation
            End Site
            {
              OFFSET 0 0 0
            }
          }
        }
      }
      JOINT RightArm
      {
        OFFSET 0.0387506 0 -2.55754
        CHANNELS 3 Zrotation Xrotation Yrotation
        JOINT RightForeArm
        {
          OFFSET -4.24845 0 0
          CHANNELS 3 Zrotation Xrotation Yrotation
          JOINT RightHand
          {
            OFFSET -4.01009 0 0
            CHANNELS 3 Zrotation Xrotation Yrotation
            End Site
            {
              OFFSET 0 0 0
            }
          }
        }
      }
    }
  }
  JOINT LeftUpLeg
  {
    OFFSET -1.23318 0 2.05692
    CHANNELS 3 Zrotation Xrotation Yrotation
    JOINT LeftLeg
    {
      OFFSET 5.46397 0 0
      CHANNELS 3 Zrotation Xrotation Yrotation
      JOINT LeftFoot
      {
        OFFSET 4.68898 0 0
        CHANNELS 3 Zrotation Xrotation Yrotation
        End Site
        {
          OFFSET 0 0 0
        }
      }
    }
  }
  JOINT RightUpLeg
  {
    OFFSET -1.24454 0 -2.05007
    CHANNELS 3 Zrotation Xrotation Yrotation
    JOINT RightLeg
    {
      OFFSET -5.46397 0 0
      CHANNELS 3 Zrotation Xrotation Yrotation
      JOINT RightFoot
      {
        OFFSET -4.68901 0 0
        CHANNELS 3 Zrotation Xrotation Yrotation
        End Site
        {
          OFFSET 0 0 0
        }
      }
    }
  }
}
MOTION
Frames:	13
Frame Time:	0.00833333
-9.40259 11.7832 0.835126 -101.92 12.0006 -175.139 -11.1035 -7.72047 0.442157 9.45602 -1.87805 4.03271 -14.1273 5.81498 0.855196 34.9519 9.95339 -11.402 -19.1466 -47.0294 -134.893 68.7452 17.4669 35.0895 -0.221652 -2.53136 174.449 -150.363 -30.4138 -171.129 91.4833 31.1681 40.4073 -104.359 -84.8396 75.1507 -19.6569 3.31552 178.567 -40.3917 -1.40004 -1.44541 36.9033 -7.92714 -177.996 142.561 -14.5187 -177.007 -43.8961 -0.885601 -1.6111 1.18204 12.2768 175.982 
-9.42421 11.7823 0.822945 -101.867 11.2668 -175.222 -10.7477 -8.83628 0.420742 9.15048 -2.20124 4.10801 -14.3307 6.13987 1.06329 35.8488 10.5036 -11.8786 -22.317 -48.3032 -133.199 62.4157 13.9769 32.9627 -0.187514 -2.14188 174.451 -149.738 -29.3462 -171.571 91.8806 31.4097 40.4418 -116.33 -84.4246 63.2313 -20.1424 2.93804 178.514 -40.6908 -1.38754 -1.45247 36.4497 -7.82516 -178.143 142.579 -14.0971 -176.7 -44.1536 -0.893917 -1.61735 1.75534 12.2939 175.89 
-9.44394 11.7809 0.812218 -101.877 10.5469 -175.322 -10.4721 -10.0651 0.429417 8.93239 -2.55023 4.21849 -14.5995 6.49291 1.24816 36.6939 11.0897 -12.395 -25.8309 -49.2257 -131.985 55.7745 10.8583 30.3631 -0.101246 -1.15697 174.454 -149.183 -28.485 -171.826 92.2129 31.6118 40.4706 -125.443 -83.8705 54.1658 -20.6612 2.62751 178.507 -40.9692 -1.3731 -1.45892 35.9942 -7.64556 -178.334 142.54 -13.713 -176.437 -44.3921 -0.90185 -1.6233 2.31447 12.2533 175.803 
-9.46171 11.779 0.803627 -101.935 9.8211 -175.494 -10.257 -11.4822 0.517803 8.82811 -2.94135 4.40166 -14.9905 6.89711 1.40791 37.5802 11.7404 -12.9867 -30.3839 -49.7286 -131.779 48.2188 8.08774 26.6671 0.0742911 0.848718 174.454 -148.705 -27.8693 -171.815 92.4537 31.7582 40.4909 -132.629 -83.2186 47.0244 -21.2174 2.39172 178.608 -41.2595 -1.35509 -1.46537 35.5403 -7.33898 -178.602 142.473 -13.3465 -176.261 -44.5863 -0.909943 -1.62847 2.85668 12.1234 175.722 
-9.47912 11.7764 0.796603 -102.049 9.08594 -175.719 -10.0808 -13.0155 0.661486 8.78957 -3.35774 4.63779 -15.4899 7.33148 1.55327 38.5232 12.4262 -13.6201 -35.7495 -50.0229 -132.367 39.6362 5.35497 22.1008 0.314773 3.59182 174.444 -148.297 -27.4229 -171.641 92.6297 31.8648 40.5042 -138.164 -82.5271 41.5322 -21.8378 2.18925 178.788 -41.5773 -1.33505 -1.47236 35.1048 -6.94362 -178.92 142.366 -12.9898 -176.154 -44.743 -0.918383 -1.63291 3.39471 11.9265 175.643 
-9.49514 11.7734 0.790033 -102.25 8.38825 -175.89 -9.9957 -14.5493 0.76925 8.79679 -3.77494 4.8576 -15.9794 7.76006 1.68056 39.31 13.101 -14.2437 -40.732 -50.1839 -132.924 31.3282 2.87225 17.6845 0.556211 6.32771 174.422 -147.982 -27.1212 -171.43 92.7813 31.9565 40.5145 -141.853 -81.9377 37.8758 -22.4911 2.03355 178.931 -41.8377 -1.31543 -1.47808 34.6727 -6.54159 -179.235 142.166 -12.6941 -176.031 -44.9139 -0.925806 -1.63766 3.92422 11.7174 175.566 
-9.50871 11.7702 0.782804 -102.563 7.77557 -175.899 -10.0648 -15.9685 0.747155 8.82744 -4.16874 4.99164 -16.3404 8.14691 1.78599 39.7235 13.7202 -14.8046 -44.1214 -50.3009 -132.603 24.8546 0.973097 14.4136 0.733012 8.31187 174.397 -147.777 -26.9392 -171.307 92.9491 32.0578 40.5258 -143.686 -81.5958 36.0618 -23.1475 1.93813 178.918 -41.9558 -1.29874 -1.48075 34.2256 -6.21522 -179.497 141.823 -12.5104 -175.808 -45.151 -0.930851 -1.64372 4.44116 11.5508 175.491 
-9.51917 11.7656 0.773829 -103.052 7.21606 -175.643 -10.41 -17.3352 0.46266 8.90796 -4.56012 5.03528 -16.5204 8.49177 1.87925 39.5769 14.2969 -15.2953 -45.5705 -50.2932 -131.111 20.8783 -0.0381273 12.435 0.828208 9.37137 174.381 -147.72 -26.9318 -171.245 93.1216 32.1624 40.5383 -144.057 -81.5221 35.695 -23.8422 1.93753 178.632 -41.8464 -1.28537 -1.47857 33.6956 -5.98967 -179.694 141.238 -12.4717 -175.374 -45.5522 -0.932392 -1.65338 4.98465 11.4556 175.413 
-9.52721 11.7601 0.763964 -103.675 6.69959 -175.205 -10.9837 -18.6793 -0.00461528 9.03721 -4.95307 5.02081 -16.5889 8.81075 1.95867 39.0248 14.848 -15.7409 -45.7385 -50.1039 -128.941 18.7565 -0.296198 11.2066 0.875481 9.89481 174.372 -147.789 -27.0915 -171.196 93.2848 32.2613 40.5502 -143.297 -81.6718 36.4479 -24.5763 2.01412 178.165 -41.5756 -1.27407 -1.47294 33.1112 -5.82011 -179.853 140.468 -12.5431 -174.802 -46.0618 -0.931411 -1.66543 5.54369 11.3978 175.333 
-9.53381 11.7556 0.755014 -104.304 6.30621 -174.76 -11.5814 -19.8377 -0.426689 9.14965 -5.29805 4.93378 -16.6092 9.09246 2.00333 38.3581 15.3354 -16.135 -44.9091 -49.8582 -126.413 18.1628 -0.12293 10.7016 0.883194 9.98001 174.371 -147.912 -27.301 -171.255 93.4745 32.3759 40.5626 -141.054 -82.0762 38.669 -25.2698 2.1033 177.712 -41.2855 -1.26489 -1.46685 32.598 -5.68388 -179.981 139.699 -12.6751 -174.29 -46.5014 -0.929701 -1.67563 6.0392 11.3378 175.264 
-9.53997 11.7541 0.748785 -104.817 6.11584 -174.481 -11.974 -20.6498 -0.567441 9.17989 -5.54545 4.75967 -16.6446 9.32555 1.99221 37.8666 15.7217 -16.4704 -43.3347 -49.7045 -123.807 18.7178 0.14771 10.8964 0.860096 9.7248 174.376 -148.017 -27.4427 -171.514 93.7266 32.5277 40.5769 -136.592 -82.7445 43.0926 -25.8457 2.14078 177.467 -41.1181 -1.25785 -1.46327 32.2819 -5.55831 179.917 139.111 -12.8199 -174.034 -46.6927 -0.929056 -1.67978 6.39192 11.236 175.216 
-9.54632 11.7569 0.745999 -105.18 6.22323 -174.432 -12.0329 -21.0411 -0.276338 9.07926 -5.67499 4.44914 -16.7129 9.52016 1.90173 37.6124 16.0062 -16.7952 -40.3189 -49.8023 -120.604 20.697 0.441093 12.0321 0.805729 9.12252 174.386 -148.097 -27.4886 -172.053 94.0721 32.7354 40.5952 -128.312 -83.6377 51.3147 -26.2708 2.09772 177.517 -41.129 -1.25379 -1.46331 32.2441 -5.44199 179.846 138.765 -13.0052 -174.154 -46.533 -0.930175 -1.67535 6.55984 11.0664 175.195 
-9.55221 11.7627 0.745613 -105.462 6.56122 -174.514 -11.8906 -21.107 0.295523 8.89317 -5.71522 4.02498 -16.7791 9.67794 1.74888 37.4419 16.2073 -17.0948 -35.9301 -49.9215 -116.83 24.1512 0.92431 14.0398 0.716762 8.1319 174.4 -148.186 -27.497 -172.804 94.4844 32.9833 40.6168 -113.987 -84.53 65.5644 -26.5906 2.01236 177.745 -41.2365 -1.25242 -1.46528 32.401 -5.34549 179.808 138.557 -13.2435 -174.521 -46.1358 -0.932028 -1.66507 6.59232 10.8552 175.195 
